Coordinates
version=1
nRows=11
nColumns=36
inDegrees=yes

Units are S.I. units (second, meters, Newtons, ...)
If the header above contains a line with 'inDegrees', this indicates whether rotational values are in degrees (yes) or radians (no).

endheader
time	pelvis_tilt	pelvis_list	pelvis_rotation	pelvis_tx	pelvis_ty	pelvis_tz	hip_flexion_r	hip_adduction_r	hip_rotation_r	knee_angle_r	knee_angle_r_beta	ankle_angle_r	subtalar_angle_r	mtp_angle_r	hip_flexion_l	hip_adduction_l	hip_rotation_l	knee_angle_l	knee_angle_l_beta	ankle_angle_l	subtalar_angle_l	mtp_angle_l	lumbar_extension	lumbar_bending	lumbar_rotation	arm_flex_r	arm_add_r	arm_rot_r	elbow_flex_r	pro_sup_r	arm_flex_l	arm_add_l	arm_rot_l	elbow_flex_l	pro_sup_l
      0.00000000	      0.18523931	      3.99956537	      7.20940502	      0.39067307	      0.99925413	     -0.06805225	      2.65589987	      2.89598966	      2.48956217	     12.47042209	      0.21764992	      4.02903432	    -18.70943715	     -6.47376848	     24.57685914	      2.79830908	      6.61755020	     11.25409392	      0.19642099	    -14.22946426	    -20.74489048	     -6.47376848	    -12.87914245	     -1.25264285	     -5.15190171	     35.29571110	      3.06506911	     61.36423853	    120.04066669	    108.27097259	     28.75338038	      0.76839666	     26.95785156	    108.15220036	    100.56114123
      0.01666670	     -0.58411964	      3.41153243	      5.36782366	      0.39676674	      0.98921129	     -0.06967333	      3.56933355	      3.14121039	      4.66217145	     12.34296893	      0.21542545	      8.12565479	    -16.72752241	     -6.63323541	     25.23141647	      1.04590303	      5.52039498	     10.23563056	      0.17864545	    -12.79247145	    -15.93595921	     -6.63323541	     -9.91061085	     -0.29661902	     -3.03284420	     37.07700724	      2.45523570	     62.85481642	    121.31133512	    104.07775893	     29.04927362	      2.59583519	     25.75655072	    107.50806131	     97.19243289
      0.03333330	     -1.58267240	      3.41432183	      5.20844475	      0.39881064	      0.98831164	     -0.06835285	      4.18451568	      3.15470990	      4.61424582	     12.01923714	      0.20977526	      9.24847718	    -17.28345602	     -6.72391528	     26.09217510	      0.92494392	      5.44522862	      9.36825937	      0.16350697	    -13.29553787	    -15.13494464	     -6.72391528	     -8.17498609	     -0.44970198	     -2.30142162	     36.07703125	      2.21628491	     63.50086190	    121.63300178	    102.68775056	     29.43805507	      3.61998883	     25.21534530	    106.77112757	     95.30717408
      0.05000000	     -2.08463668	      3.74589386	      5.20251770	      0.39897976	      0.98796275	     -0.06766164	      4.59167502	      2.87732655	      4.63361305	     12.09889503	      0.21116555	      9.86540514	    -17.48089130	     -6.90708474	     26.61123316	      1.18349351	      5.63900282	      9.25786613	      0.16158025	    -13.74962413	    -15.42139099	     -6.90708474	     -7.34573494	     -0.87918636	     -1.66473573	     35.60537024	      1.99711437	     63.97471014	    120.66785207	    100.15412661	     29.93293888	      4.05141472	     25.90441896	    106.12833865	     91.90260095
      0.06666670	     -2.50949483	      4.05504945	      5.26277741	      0.39977383	      0.98907249	     -0.06727422	      4.90145585	      2.53845933	      4.27389376	     12.01504559	      0.20970211	     10.58947324	    -16.68108047	     -7.09461741	     27.06493334	      1.50946692	      5.89613972	      9.48250816	      0.16550099	    -13.84323222	    -15.94967333	     -7.09461741	     -6.80408189	     -1.13615335	     -1.37651367	     35.32046668	      2.19528510	     64.31957602	    119.18129256	     99.29012870	     29.30711256	      3.94439076	     25.94243947	    106.04276393	     86.93947453
      0.08333330	     -2.74375867	      4.31965406	      5.14556165	      0.39977736	      0.98903354	     -0.06684168	      5.15130940	      2.24644875	      4.25660766	     12.04992454	      0.21031086	     11.09090074	    -16.08388848	     -7.16042956	     27.39451685	      1.73962441	      5.82555220	      9.46659244	      0.16522321	    -13.58528579	    -16.05354581	     -7.16042956	     -6.56131110	     -1.42321524	     -0.90034701	     35.00060776	      2.34382851	     64.69233536	    118.27681538	     95.70187848	     28.45599322	      3.87735722	     26.38238036	    106.75422109	     84.69003368
      0.10000000	     -3.06596439	      4.39198686	      5.17615639	      0.40133230	      0.98833738	     -0.06600259	      5.49194604	      2.18489727	      4.06940638	     12.11419808	      0.21143264	     11.11839823	    -16.06694886	     -7.17893244	     27.73590162	      1.77478645	      5.83971152	      9.43223383	      0.16462354	    -13.53514231	    -16.53064575	     -7.17893244	     -6.10856931	     -1.60335533	     -0.67531705	     34.58716725	      2.45711877	     64.79758457	    117.56326863	     94.71609187	     27.66354368	      3.86761831	     26.24226991	    106.62804314	     83.40024950
      0.11666670	     -3.34125748	      4.30045352	      5.34959987	      0.40042353	      0.98754146	     -0.06664452	      5.99318953	      2.21167907	      3.79945891	     12.24973705	      0.21379824	     11.24267418	    -15.77117544	     -7.21069830	     28.06715178	      1.81743391	      6.22322776	      9.42910478	      0.16456892	    -13.66860601	    -17.50123614	     -7.21069830	     -5.84240741	     -1.41025391	     -1.20587334	     35.08344147	      2.83949226	     65.07045629	    116.82550422	     93.90718552	     26.86817882	      3.50536713	     25.75275337	    107.53906274	     81.82463893
      0.13333330	     -3.40774346	      4.27216051	      5.51370401	      0.40116288	      0.99017915	     -0.06236711	      5.99680658	      2.36684129	      3.75207639	     12.20928028	      0.21309214	     11.26686511	    -15.77644586	     -7.21086090	     28.16081015	      1.71867824	      6.17952700	      9.36391488	      0.16343115	    -13.61174098	    -17.54884818	     -7.21086090	     -5.92363263	     -1.58450654	     -1.12337200	     35.11188682	      2.91794972	     65.07916191	    116.80637251	     93.90448207	     26.85541935	      3.44334017	     25.71906819	    107.50027145	     81.80994380
      0.15000000	     -3.74504170	      4.25543855	      5.45684307	      0.39711138	      0.98813389	     -0.06469284	      6.48478046	      2.36872450	      3.65824284	     12.30502003	      0.21476311	     11.50416693	    -15.58707731	     -7.21716032	     28.58903835	      1.68093842	      5.94925094	      9.35848287	      0.16333634	    -13.54042294	    -17.68125636	     -7.21716032	     -5.56354758	     -1.62643006	     -1.28965129	     35.57294169	      3.26519490	     65.41744108	    116.35674229	     93.76721591	     27.30892589	      3.48034172	     25.61095537	    106.53370339	     81.14336367
      0.16666670	     -3.87799522	      4.22014914	      5.56128012	      0.39770667	      0.98921318	     -0.06489038	      6.78284480	      2.35422752	      3.67665406	     12.25496337	      0.21388946	     11.45030389	    -15.45019604	     -7.23496326	     28.66226728	      1.67781572	      5.99862863	      9.25241224	      0.16148506	    -13.45732112	    -17.38872340	     -7.23496326	     -5.60950907	     -1.70562134	     -1.28508800	     35.73706821	      3.25484769	     65.45313267	    116.27227071	     92.44778796	     27.47184062	      3.81688889	     25.47349731	    105.98344532	     79.44694658
